<mxfile host="Electron" agent="Mozilla/5.0 (Macintosh; Intel Mac OS X 10_15_7) AppleWebKit/537.36 (KHTML, like Gecko) draw.io/25.0.2 Chrome/128.0.6613.186 Electron/32.2.5 Safari/537.36" version="25.0.2">
  <diagram name="Page-1" id="7aoWPy0CWsSXiGtCwsSY">
    <mxGraphModel dx="925" dy="515" grid="1" gridSize="10" guides="1" tooltips="1" connect="1" arrows="1" fold="1" page="1" pageScale="1" pageWidth="827" pageHeight="1169" math="0" shadow="0">
      <root>
        <mxCell id="0" />
        <mxCell id="1" parent="0" />
        <mxCell id="lREgK0BJvLBavX1vT_6k-4" value="" style="edgeStyle=orthogonalEdgeStyle;rounded=0;orthogonalLoop=1;jettySize=auto;html=1;" edge="1" parent="1" source="lREgK0BJvLBavX1vT_6k-1" target="lREgK0BJvLBavX1vT_6k-2">
          <mxGeometry relative="1" as="geometry" />
        </mxCell>
        <mxCell id="lREgK0BJvLBavX1vT_6k-1" value="" style="rounded=0;whiteSpace=wrap;html=1;fillColor=#fff2cc;strokeColor=#d6b656;" vertex="1" parent="1">
          <mxGeometry x="209" y="334" width="410" height="250" as="geometry" />
        </mxCell>
        <mxCell id="lREgK0BJvLBavX1vT_6k-2" value="" style="shape=cylinder3;whiteSpace=wrap;html=1;boundedLbl=1;backgroundOutline=1;size=6.935483870967715;fillColor=#1ba1e2;fontColor=#ffffff;strokeColor=#006EAF;" vertex="1" parent="1">
          <mxGeometry x="304" y="150" width="220" height="160" as="geometry" />
        </mxCell>
        <mxCell id="lREgK0BJvLBavX1vT_6k-3" value="Global Store" style="text;html=1;align=center;verticalAlign=middle;whiteSpace=wrap;rounded=0;fontStyle=1;fontSize=14;" vertex="1" parent="1">
          <mxGeometry x="304" y="120" width="220" height="30" as="geometry" />
        </mxCell>
        <mxCell id="lREgK0BJvLBavX1vT_6k-5" value="App Component" style="text;html=1;align=center;verticalAlign=middle;whiteSpace=wrap;rounded=0;fontStyle=1;fontSize=14;" vertex="1" parent="1">
          <mxGeometry x="304" y="590" width="220" height="30" as="geometry" />
        </mxCell>
        <mxCell id="lREgK0BJvLBavX1vT_6k-6" value="" style="rounded=0;whiteSpace=wrap;html=1;fillColor=#f5f5f5;fontColor=#333333;strokeColor=#666666;" vertex="1" parent="1">
          <mxGeometry x="324" y="200" width="180" height="95" as="geometry" />
        </mxCell>
        <mxCell id="lREgK0BJvLBavX1vT_6k-7" value="counter" style="text;html=1;align=center;verticalAlign=middle;whiteSpace=wrap;rounded=0;fontStyle=1;fontSize=14;fontColor=#FFFFFF;" vertex="1" parent="1">
          <mxGeometry x="324" y="175" width="180" height="20" as="geometry" />
        </mxCell>
        <mxCell id="lREgK0BJvLBavX1vT_6k-24" style="edgeStyle=orthogonalEdgeStyle;rounded=0;orthogonalLoop=1;jettySize=auto;html=1;" edge="1" parent="1" source="lREgK0BJvLBavX1vT_6k-8" target="lREgK0BJvLBavX1vT_6k-21">
          <mxGeometry relative="1" as="geometry" />
        </mxCell>
        <mxCell id="lREgK0BJvLBavX1vT_6k-8" value="value: 0" style="rounded=0;whiteSpace=wrap;html=1;fillColor=#d5e8d4;strokeColor=#82b366;" vertex="1" parent="1">
          <mxGeometry x="374" y="207.5" width="80" height="25" as="geometry" />
        </mxCell>
        <mxCell id="lREgK0BJvLBavX1vT_6k-10" value="incrementAction" style="rounded=0;whiteSpace=wrap;html=1;fillColor=#f8cecc;strokeColor=#b85450;" vertex="1" parent="1">
          <mxGeometry x="334" y="243.5" width="100" height="20" as="geometry" />
        </mxCell>
        <mxCell id="lREgK0BJvLBavX1vT_6k-11" value="() =&amp;gt; {}" style="rounded=0;whiteSpace=wrap;html=1;fillColor=#ffe6cc;strokeColor=#d79b00;" vertex="1" parent="1">
          <mxGeometry x="444" y="243.5" width="50" height="20" as="geometry" />
        </mxCell>
        <mxCell id="lREgK0BJvLBavX1vT_6k-13" value="decrementAction" style="rounded=0;whiteSpace=wrap;html=1;fillColor=#f8cecc;strokeColor=#b85450;" vertex="1" parent="1">
          <mxGeometry x="334" y="268" width="100" height="20" as="geometry" />
        </mxCell>
        <mxCell id="lREgK0BJvLBavX1vT_6k-14" value="() =&amp;gt; {}" style="rounded=0;whiteSpace=wrap;html=1;fillColor=#ffe6cc;strokeColor=#d79b00;" vertex="1" parent="1">
          <mxGeometry x="444" y="268" width="50" height="20" as="geometry" />
        </mxCell>
        <mxCell id="lREgK0BJvLBavX1vT_6k-15" value="" style="rounded=0;whiteSpace=wrap;html=1;" vertex="1" parent="1">
          <mxGeometry x="250" y="370" width="150" height="190" as="geometry" />
        </mxCell>
        <mxCell id="lREgK0BJvLBavX1vT_6k-16" value="" style="rounded=0;whiteSpace=wrap;html=1;" vertex="1" parent="1">
          <mxGeometry x="434" y="370" width="150" height="190" as="geometry" />
        </mxCell>
        <mxCell id="lREgK0BJvLBavX1vT_6k-17" value="counter:&amp;nbsp;" style="rounded=0;whiteSpace=wrap;html=1;" vertex="1" parent="1">
          <mxGeometry x="272" y="390" width="106" height="30" as="geometry" />
        </mxCell>
        <mxCell id="lREgK0BJvLBavX1vT_6k-20" value="counter:&amp;nbsp;" style="rounded=0;whiteSpace=wrap;html=1;" vertex="1" parent="1">
          <mxGeometry x="460" y="390" width="106" height="30" as="geometry" />
        </mxCell>
        <mxCell id="lREgK0BJvLBavX1vT_6k-23" style="edgeStyle=orthogonalEdgeStyle;rounded=0;orthogonalLoop=1;jettySize=auto;html=1;entryX=0;entryY=0.5;entryDx=0;entryDy=0;" edge="1" parent="1" source="lREgK0BJvLBavX1vT_6k-21" target="lREgK0BJvLBavX1vT_6k-17">
          <mxGeometry relative="1" as="geometry">
            <Array as="points">
              <mxPoint x="190" y="405" />
            </Array>
          </mxGeometry>
        </mxCell>
        <mxCell id="lREgK0BJvLBavX1vT_6k-21" value="useSelector()" style="rounded=0;whiteSpace=wrap;html=1;fillColor=#e1d5e7;strokeColor=#9673a6;" vertex="1" parent="1">
          <mxGeometry x="130" y="200" width="120" height="40" as="geometry" />
        </mxCell>
        <mxCell id="lREgK0BJvLBavX1vT_6k-25" value="+" style="rounded=0;whiteSpace=wrap;html=1;" vertex="1" parent="1">
          <mxGeometry x="490" y="447" width="46" height="23" as="geometry" />
        </mxCell>
        <mxCell id="lREgK0BJvLBavX1vT_6k-26" value="-" style="rounded=0;whiteSpace=wrap;html=1;" vertex="1" parent="1">
          <mxGeometry x="490" y="500" width="46" height="23" as="geometry" />
        </mxCell>
        <mxCell id="lREgK0BJvLBavX1vT_6k-35" style="edgeStyle=orthogonalEdgeStyle;rounded=0;orthogonalLoop=1;jettySize=auto;html=1;entryX=1;entryY=0.5;entryDx=0;entryDy=0;" edge="1" parent="1" source="lREgK0BJvLBavX1vT_6k-27" target="lREgK0BJvLBavX1vT_6k-8">
          <mxGeometry relative="1" as="geometry" />
        </mxCell>
        <mxCell id="lREgK0BJvLBavX1vT_6k-27" value="useDispatch()" style="rounded=0;whiteSpace=wrap;html=1;fillColor=#e1d5e7;strokeColor=#9673a6;" vertex="1" parent="1">
          <mxGeometry x="660" y="200" width="180" height="40" as="geometry" />
        </mxCell>
        <mxCell id="lREgK0BJvLBavX1vT_6k-28" style="edgeStyle=orthogonalEdgeStyle;rounded=0;orthogonalLoop=1;jettySize=auto;html=1;entryX=0.191;entryY=0.907;entryDx=0;entryDy=0;entryPerimeter=0;" edge="1" parent="1" source="lREgK0BJvLBavX1vT_6k-30" target="lREgK0BJvLBavX1vT_6k-27">
          <mxGeometry relative="1" as="geometry" />
        </mxCell>
        <mxCell id="lREgK0BJvLBavX1vT_6k-29" style="edgeStyle=orthogonalEdgeStyle;rounded=0;orthogonalLoop=1;jettySize=auto;html=1;entryX=0.861;entryY=1.02;entryDx=0;entryDy=0;entryPerimeter=0;" edge="1" parent="1" source="lREgK0BJvLBavX1vT_6k-32" target="lREgK0BJvLBavX1vT_6k-27">
          <mxGeometry relative="1" as="geometry" />
        </mxCell>
        <mxCell id="lREgK0BJvLBavX1vT_6k-31" value="" style="edgeStyle=orthogonalEdgeStyle;rounded=0;orthogonalLoop=1;jettySize=auto;html=1;entryX=0.5;entryY=1;entryDx=0;entryDy=0;" edge="1" parent="1" source="lREgK0BJvLBavX1vT_6k-25" target="lREgK0BJvLBavX1vT_6k-30">
          <mxGeometry relative="1" as="geometry">
            <mxPoint x="536" y="458" as="sourcePoint" />
            <mxPoint x="694" y="236" as="targetPoint" />
          </mxGeometry>
        </mxCell>
        <mxCell id="lREgK0BJvLBavX1vT_6k-30" value="incrementAction()" style="rounded=1;whiteSpace=wrap;html=1;fillColor=#d80073;fontColor=#ffffff;strokeColor=#A50040;" vertex="1" parent="1">
          <mxGeometry x="640" y="280" width="110" height="30" as="geometry" />
        </mxCell>
        <mxCell id="lREgK0BJvLBavX1vT_6k-33" value="" style="edgeStyle=orthogonalEdgeStyle;rounded=0;orthogonalLoop=1;jettySize=auto;html=1;entryX=0.5;entryY=1;entryDx=0;entryDy=0;" edge="1" parent="1" source="lREgK0BJvLBavX1vT_6k-26" target="lREgK0BJvLBavX1vT_6k-32">
          <mxGeometry relative="1" as="geometry">
            <mxPoint x="536" y="512" as="sourcePoint" />
            <mxPoint x="815" y="241" as="targetPoint" />
          </mxGeometry>
        </mxCell>
        <mxCell id="lREgK0BJvLBavX1vT_6k-32" value="decrementAction()" style="rounded=1;whiteSpace=wrap;html=1;fillColor=#d80073;fontColor=#ffffff;strokeColor=#A50040;" vertex="1" parent="1">
          <mxGeometry x="760" y="360" width="110" height="30" as="geometry" />
        </mxCell>
      </root>
    </mxGraphModel>
  </diagram>
</mxfile>
